$MeshFormat
2.2 0 8
$EndMeshFormat
$Nodes
25
1 0 0 0
2 100 0 0
3 0 100 0
4 100 100 0
5 24.99999999988813 0 0
6 49.99999999982364 0 0
7 74.99999999986325 0 0
8 100 24.99999999988813 0
9 100 49.99999999982364 0
10 100 74.99999999986325 0
11 75.00000000017764 100 0
12 50.00000000025813 100 0
13 25.00000000017762 100 0
14 0 75.00000000017764 0
15 0 50.00000000025813 0
16 0 25.00000000017762 0
17 24.99999999996049 25.00000000010525 0
18 25.00000000003288 50.00000000014951 0
19 25.00000000010525 75.00000000009905 0
20 49.99999999993227 25.00000000003288 0
21 50.00000000004088 50.00000000004088 0
22 50.0000000001495 75.00000000002045 0
23 74.99999999994182 24.9999999999605 0
24 75.00000000002045 49.99999999993227 0
25 75.00000000009902 74.99999999994182 0
$EndNodes
$Elements
36
1 15 2 0 1 1
2 15 2 0 2 2
3 15 2 0 3 3
4 15 2 0 4 4
5 1 2 0 1 1 5
6 1 2 0 1 5 6
7 1 2 0 1 6 7
8 1 2 0 1 7 2
9 1 2 0 2 2 8
10 1 2 0 2 8 9
11 1 2 0 2 9 10
12 1 2 0 2 10 4
13 1 2 0 3 4 11
14 1 2 0 3 11 12
15 1 2 0 3 12 13
16 1 2 0 3 13 3
17 1 2 0 4 3 14
18 1 2 0 4 14 15
19 1 2 0 4 15 16
20 1 2 0 4 16 1
21 3 2 0 6 1 5 17 16
22 3 2 0 6 16 17 18 15
23 3 2 0 6 15 18 19 14
24 3 2 0 6 14 19 13 3
25 3 2 0 6 5 6 20 17
26 3 2 0 6 17 20 21 18
27 3 2 0 6 18 21 22 19
28 3 2 0 6 19 22 12 13
29 3 2 0 6 6 7 23 20
30 3 2 0 6 20 23 24 21
31 3 2 0 6 21 24 25 22
32 3 2 0 6 22 25 11 12
33 3 2 0 6 7 2 8 23
34 3 2 0 6 23 8 9 24
35 3 2 0 6 24 9 10 25
36 3 2 0 6 25 10 4 11
$EndElements
