$MeshFormat
4.1 0 8
$EndMeshFormat
$Entities
12 24 9 0
11 -10 -5 0 0 
12 0 -5 0 0 
13 0 5 0 0 
14 -10 5 0 0 
15 -7.071067811865476 -5 -7.071067811865475 0 
16 -7.071067811865476 5 -7.071067811865475 0 
18 10 -5 0 0 
22 10 5 0 0 
23 -6.123233995736766e-16 -5 -10 0 
32 -6.123233995736766e-16 5 -10 0 
33 7.071067811865475 -5 -7.071067811865476 0 
42 7.071067811865475 5 -7.071067811865476 0 
21 -10 -5 0 0 -5 0 0 2 11 -12 
22 0 -5 0 0 5 0 0 2 12 -13 
23 -10 5 0 0 5 0 0 2 13 -14 
24 -10 -5 0 -10 5 0 0 2 14 -11 
25 -10 -5 -7.071067811865475 -7.071067811865476 -5 0 0 2 11 -15 
26 -7.071067811865476 -5 -7.071067811865475 -7.071067811865476 5 -7.071067811865475 0 2 15 -16 
27 -10 5 -7.071067811865475 -7.071067811865476 5 0 0 2 16 -14 
44 0 -5 0 10 -5 0 0 2 12 -18 
45 10 -5 0 10 5 0 0 2 18 -22 
46 0 5 0 10 5 0 0 2 22 -13 
48 -7.071067811865476 -5 -7.071067811865475 0 -5 0 0 2 15 -12 
50 -7.071067811865476 5 -7.071067811865475 0 5 0 0 2 13 -16 
52 -6.123233995736766e-16 -5 -10 0 -5 0 0 2 23 -12 
54 -6.123233995736766e-16 5 -10 0 5 0 0 2 13 -32 
55 -6.123233995736766e-16 -5 -10 -6.123233995736766e-16 5 -10 0 2 32 -23 
57 0 -5 -7.071067811865476 7.071067811865475 -5 0 0 2 33 -12 
59 0 5 -7.071067811865476 7.071067811865475 5 0 0 2 13 -42 
60 7.071067811865475 -5 -7.071067811865476 7.071067811865475 5 -7.071067811865476 0 2 42 -33 
63 -7.071067811865476 -5 -10 -8.881784197001252e-16 -5 -7.071067811865475 0 2 15 -23 
65 -7.071067811865476 5 -10 -4.440892098500626e-16 5 -7.071067811865475 0 2 32 -16 
68 -4.440892098500626e-16 -5 -10 7.071067811865475 -5 -7.071067811865476 0 2 23 -33 
70 -8.881784197001252e-16 5 -10 7.071067811865475 5 -7.071067811865476 0 2 42 -32 
73 7.071067811865475 -5 -7.071067811865476 10 -5 0 0 2 33 -18 
75 7.071067811865475 5 -7.071067811865476 10 5 0 0 2 22 -42 
41 -10 -5 0 0 5 0 0 4 21 22 23 24 
42 -10 -5 -7.071067811865475 -7.071067811865476 5 0 0 4 24 25 26 27 
43 0 -5 0 10 5 0 0 4 44 45 46 -22 
47 -7.071067811865476 -5 -7.071067811865475 0 5 0 0 4 48 22 50 -26 
51 -6.123233995736766e-16 -5 -10 0 5 0 0 4 52 22 54 55 
56 0 -5 -7.071067811865476 7.071067811865475 5 0 0 4 57 22 59 60 
61 -7.071067811865476 -5 -10 -4.440892098500626e-16 5 -7.071067811865475 0 4 -26 63 -55 65 
66 -8.881784197001252e-16 -5 -10 7.071067811865475 5 -7.071067811865476 0 4 55 68 -60 70 
71 7.071067811865475 -5 -7.071067811865476 10 5 0 0 4 60 73 45 75 
$EndEntities
$Nodes
45 700 1 700
0 11 0 1
1
-10 -5 0
0 12 0 1
2
0 -5 0
0 13 0 1
3
0 5 0
0 14 0 1
4
-10 5 0
0 15 0 1
5
-7.071067811865476 -5 -7.071067811865475
0 16 0 1
6
-7.071067811865476 5 -7.071067811865475
0 18 0 1
7
10 -5 0
0 22 0 1
8
10 5 0
0 23 0 1
9
-6.123233995736766e-16 -5 -10
0 32 0 1
10
-6.123233995736766e-16 5 -10
0 33 0 1
11
7.071067811865475 -5 -7.071067811865476
0 42 0 1
12
7.071067811865475 5 -7.071067811865476
1 21 0 8
13
14
15
16
17
18
19
20
-8.888888888888891 -5 0
-7.777777777777783 -5 0
-6.666666666666671 -5 0
-5.555555555555559 -5 0
-4.444444444444447 -5 0
-3.333333333333335 -5 0
-2.222222222222223 -5 0
-1.111111111111111 -5 0
1 22 0 8
21
22
23
24
25
26
27
28
0 -3.888888888887522 0
0 -2.777777777779364 0
0 -1.666666666671818 0
0 -0.5555555555624023 0
0 0.5555555555500789 0
0 1.666666666662559 0
0 2.77777777777504 0
0 3.888888888887521 0
1 23 0 8
29
30
31
32
33
34
35
36
-1.111111111110218 5 0
-2.22222222221839 5 0
-3.333333333326256 5 0
-4.444444444435993 5 0
-5.555555555548794 5 0
-6.666666666661597 5 0
-7.777777777774398 5 0
-8.888888888887202 5 0
1 24 0 8
37
38
39
40
41
42
43
44
-10 3.888888888887522 0
-10 2.777777777779364 0
-10 1.666666666671818 0
-10 0.5555555555624023 0
-10 -0.5555555555500789 0
-10 -1.666666666662559 0
-10 -2.77777777777504 0
-10 -3.888888888887521 0
1 25 0 6
45
46
47
48
49
50
-9.581581115981745 -5 -1.010152544549884
-9.163162231963989 -5 -2.020305089098566
-8.744743347946301 -5 -3.030457633647087
-8.326324463926651 -5 -4.040610178200341
-7.90790557990641 -5 -5.050762722755019
-7.489486695885634 -5 -6.060915267310993
1 26 0 8
51
52
53
54
55
56
57
58
-7.071067811865476 -3.888888888887522 -7.071067811865475
-7.071067811865476 -2.777777777779364 -7.071067811865475
-7.071067811865476 -1.666666666671818 -7.071067811865475
-7.071067811865476 -0.5555555555624023 -7.071067811865475
-7.071067811865476 0.5555555555500789 -7.071067811865475
-7.071067811865476 1.666666666662559 -7.071067811865475
-7.071067811865476 2.77777777777504 -7.071067811865475
-7.071067811865476 3.888888888887521 -7.071067811865475
1 27 0 6
59
60
61
62
63
64
-7.489486695883295 5 -6.060915267316639
-7.907905579901176 5 -5.050762722767655
-8.326324463919027 5 -4.040610178218746
-8.744743347938662 5 -3.030457633665527
-9.163162231958943 5 -2.02030508911075
-9.581581115979832 5 -1.010152544554505
1 44 0 8
65
66
67
68
69
70
71
72
1.111111111110218 -5 0
2.22222222221839 -5 0
3.333333333326256 -5 0
4.444444444435993 -5 0
5.555555555548794 -5 0
6.666666666661597 -5 0
7.777777777774398 -5 0
8.888888888887202 -5 0
1 45 0 8
73
74
75
76
77
78
79
80
10 -3.888888888887522 0
10 -2.777777777779364 0
10 -1.666666666671818 0
10 -0.5555555555624023 0
10 0.5555555555500789 0
10 1.666666666662559 0
10 2.77777777777504 0
10 3.888888888887521 0
1 46 0 8
81
82
83
84
85
86
87
88
8.888888888888891 5 0
7.777777777777783 5 0
6.666666666666671 5 0
5.555555555555559 5 0
4.444444444444447 5 0
3.333333333333335 5 0
2.222222222222223 5 0
1.111111111111111 5 0
1 48 0 8
89
90
91
92
93
94
95
96
-6.28539361054971 -5 -6.285393610549709
-5.499719409233811 -5 -5.49971940923381
-4.714045207918066 -5 -4.714045207918065
-3.9283710066013 -5 -3.9283710066013
-3.142696805281366 -5 -3.142696805281366
-2.357022603961173 -5 -2.357022603961172
-1.571348402640358 -5 -1.571348402640357
-0.7856742013200728 -5 -0.7856742013200728
1 50 0 8
97
98
99
100
101
102
103
104
-0.7856742013168074 5 -0.7856742013168073
-1.571348402632732 5 -1.571348402632731
-2.357022603948299 5 -2.357022603948299
-3.142696805264976 5 -3.142696805264976
-3.92837100658475 5 -3.92837100658475
-4.714045207904783 5 -4.714045207904783
-5.499719409225438 5 -5.499719409225437
-6.285393610545563 5 -6.285393610545562
1 52 0 8
105
106
107
108
109
110
111
112
-5.442874662877128e-16 -5 -8.888888888888891
-4.762515330017488e-16 -5 -7.777777777777783
-4.082155997157847e-16 -5 -6.666666666666671
-3.401796664298205e-16 -5 -5.555555555555559
-2.721437331438565e-16 -5 -4.444444444444447
-2.041077998578923e-16 -5 -3.333333333333335
-1.360718665719282e-16 -5 -2.222222222222223
-6.803593328596407e-17 -5 -1.111111111111111
1 54 0 8
113
114
115
116
117
118
119
120
-6.80359332859094e-17 5 -1.111111111110218
-1.360718665716935e-16 5 -2.22222222221839
-2.041077998574589e-16 5 -3.333333333326256
-2.721437331433387e-16 5 -4.444444444435993
-3.401796664294063e-16 5 -5.555555555548794
-4.08215599715474e-16 5 -6.666666666661597
-4.762515330015415e-16 5 -7.777777777774398
-5.442874662876092e-16 5 -8.888888888887202
1 55 0 8
121
122
123
124
125
126
127
128
-6.123233995736766e-16 3.888888888887522 -10
-6.123233995736766e-16 2.777777777779364 -10
-6.123233995736766e-16 1.666666666671818 -10
-6.123233995736766e-16 0.5555555555624023 -10
-6.123233995736766e-16 -0.5555555555500789 -10
-6.123233995736766e-16 -1.666666666662559 -10
-6.123233995736766e-16 -2.77777777777504 -10
-6.123233995736766e-16 -3.888888888887521 -10
1 57 0 8
129
130
131
132
133
134
135
136
6.285393610549709 -5 -6.28539361054971
5.49971940923381 -5 -5.499719409233811
4.714045207918065 -5 -4.714045207918066
3.9283710066013 -5 -3.9283710066013
3.142696805281366 -5 -3.142696805281366
2.357022603961172 -5 -2.357022603961173
1.571348402640357 -5 -1.571348402640358
0.7856742013200728 -5 -0.7856742013200728
1 59 0 8
137
138
139
140
141
142
143
144
0.7856742013168073 5 -0.7856742013168074
1.571348402632731 5 -1.571348402632732
2.357022603948299 5 -2.357022603948299
3.142696805264976 5 -3.142696805264976
3.92837100658475 5 -3.92837100658475
4.714045207904783 5 -4.714045207904783
5.499719409225437 5 -5.499719409225438
6.285393610545562 5 -6.285393610545563
1 60 0 8
145
146
147
148
149
150
151
152
7.071067811865475 3.888888888887522 -7.071067811865476
7.071067811865475 2.777777777779364 -7.071067811865476
7.071067811865475 1.666666666671818 -7.071067811865476
7.071067811865475 0.5555555555624023 -7.071067811865476
7.071067811865475 -0.5555555555500789 -7.071067811865476
7.071067811865475 -1.666666666662559 -7.071067811865476
7.071067811865475 -2.77777777777504 -7.071067811865476
7.071067811865475 -3.888888888887521 -7.071067811865476
1 63 0 6
153
154
155
156
157
158
-6.060915267316256 -5 -7.489486695883453
-5.050762722767296 -5 -7.907905579901325
-4.040610178218648 -5 -8.326324463919068
-3.030457633664741 -5 -8.744743347938988
-2.02030508910998 -5 -9.163162231959262
-1.010152544554488 -5 -9.581581115979839
1 65 0 6
159
160
161
162
163
164
-1.010152544549991 5 -9.581581115981702
-2.020305089098846 5 -9.163162231963874
-3.03045763364791 5 -8.74474334794596
-4.040610178201375 5 -8.326324463926221
-5.050762722755361 5 -7.907905579906268
-6.060915267310922 5 -7.489486695885663
1 68 0 6
165
166
167
168
169
170
1.010152544549942 -5 -9.581581115981722
2.020305089097854 -5 -9.163162231964284
3.03045763364851 -5 -8.744743347945711
4.040610178202036 -5 -8.326324463925948
5.050762722756629 -5 -7.907905579905743
6.060915267311016 -5 -7.489486695885624
1 70 0 6
171
172
173
174
175
176
6.0609152673163 5 -7.489486695883436
5.050762722768313 5 -7.907905579900904
4.040610178217351 5 -8.326324463919605
3.030457633663709 5 -8.744743347939416
2.020305089109059 5 -9.163162231959642
1.01015254455444 5 -9.581581115979859
1 73 0 6
177
178
179
180
181
182
7.489486695883357 -5 -6.060915267316488
7.907905579900948 -5 -5.050762722768206
8.326324463919594 -5 -4.040610178217378
8.744743347939584 -5 -3.030457633663302
9.163162231959859 -5 -2.02030508910854
9.581581115979812 -5 -1.010152544554552
1 75 0 6
183
184
185
186
187
188
9.581581115981677 5 -1.010152544550048
9.163162231964169 5 -2.020305089098136
8.744743347945368 5 -3.030457633649336
8.326324463925518 5 -4.040610178203073
7.907905579905601 5 -5.050762722756972
7.489486695885653 5 -6.060915267310947
2 41 0 64
189
190
191
192
193
194
195
196
197
198
199
200
201
202
203
204
205
206
207
208
209
210
211
212
213
214
215
216
217
218
219
220
221
222
223
224
225
226
227
228
229
230
231
232
233
234
235
236
237
238
239
240
241
242
243
244
245
246
247
248
249
250
251
252
-8.888888888888703 -3.888888888887521 0
-8.888888888888514 -2.77777777777552 0
-8.88888888888833 -1.666666666663588 0
-8.888888888888141 -0.555555555551448 0
-8.888888888887953 0.5555555555610328 0
-8.888888888887767 1.666666666670789 0
-8.888888888887577 2.777777777778883 0
-8.888888888887388 3.888888888887522 0
-7.777777777777407 -3.888888888887522 0
-7.777777777777031 -2.777777777776001 0
-7.777777777776656 -1.666666666664617 0
-7.777777777776279 -0.5555555555528169 0
-7.777777777775905 0.5555555555596636 0
-7.77777777777553 1.666666666669761 0
-7.777777777775151 2.777777777778403 0
-7.777777777774775 3.888888888887522 0
-6.666666666666107 -3.888888888887522 0
-6.666666666665542 -2.777777777776482 0
-6.666666666664979 -1.666666666665646 0
-6.666666666664415 -0.5555555555541858 0
-6.666666666663852 0.5555555555582941 0
-6.666666666663288 1.666666666668732 0
-6.666666666662723 2.777777777777923 0
-6.666666666662161 3.888888888887522 0
-5.555555555554808 -3.888888888887522 0
-5.555555555554055 -2.777777777776962 0
-5.555555555553302 -1.666666666666675 0
-5.555555555552553 -0.5555555555555556 0
-5.5555555555518 0.5555555555569252 0
-5.555555555551049 1.666666666667703 0
-5.555555555550297 2.777777777777442 0
-5.555555555549544 3.888888888887521 0
-4.444444444443507 -3.888888888887522 0
-4.444444444442567 -2.777777777777442 0
-4.444444444441627 -1.666666666667703 0
-4.444444444440689 -0.5555555555569248 0
-4.444444444439751 0.5555555555555558 0
-4.44444444443881 1.666666666666674 0
-4.444444444437871 2.777777777776962 0
-4.444444444436931 3.888888888887521 0
-3.333333333332549 -3.888888888887522 0
-3.333333333331761 -2.777777777777923 0
-3.333333333330974 -1.666666666668732 0
-3.333333333330189 -0.5555555555582944 0
-3.333333333329402 0.5555555555541866 0
-3.333333333328616 1.666666666665645 0
-3.333333333327829 2.777777777776481 0
-3.333333333327043 3.888888888887521 0
-2.222222222221796 -3.888888888887522 0
-2.222222222221371 -2.777777777778403 0
-2.222222222220946 -1.666666666669761 0
-2.22222222222052 -0.555555555559663 0
-2.222222222220093 0.5555555555528172 0
-2.222222222219667 1.666666666664617 0
-2.222222222219242 2.777777777776002 0
-2.222222222218816 3.888888888887521 0
-1.111111111111011 -3.888888888887522 0
-1.111111111110912 -2.777777777778884 0
-1.111111111110813 -1.666666666670789 0
-1.111111111110714 -0.555555555561033 0
-1.111111111110615 0.5555555555514475 0
-1.111111111110516 1.666666666663588 0
-1.111111111110417 2.77777777777552 0
-1.111111111110317 3.888888888887521 0
2 42 0 48
253
254
255
256
257
258
259
260
261
262
263
264
265
266
267
268
269
270
271
272
273
274
275
276
277
278
279
280
281
282
283
284
285
286
287
288
289
290
291
292
293
294
295
296
297
298
299
300
-9.581581115980045 3.888888888887522 -1.010152544553992
-9.163162231959504 3.888888888887522 -2.020305089109397
-8.744743347939512 3.888888888887522 -3.030457633663479
-8.326324463919875 3.888888888887522 -4.040610178216703
-7.90790557990176 3.888888888887521 -5.050762722766253
-7.489486695883557 3.888888888887522 -6.060915267316012
-9.581581115980256 2.777777777778746 -1.010152544553479
-9.163162231960065 2.777777777778129 -2.020305089108043
-8.744743347940361 2.777777777777511 -3.03045763366143
-8.326324463920722 2.777777777776894 -4.040610178214656
-7.907905579902341 2.777777777776276 -5.050762722764848
-7.489486695883817 2.777777777775658 -6.060915267315386
-9.58158111598047 1.666666666670496 -1.010152544552965
-9.163162231960627 1.666666666669173 -2.020305089106689
-8.744743347941208 1.666666666667851 -3.030457633659382
-8.326324463921569 1.666666666666528 -4.040610178212612
-7.907905579902923 1.666666666665205 -5.050762722763444
-7.489486695884076 1.666666666663883 -6.060915267314759
-9.581581115980683 0.5555555555606415 -1.010152544552452
-9.163162231961186 0.5555555555588808 -2.020305089105335
-8.744743347942057 0.5555555555571206 -3.030457633657333
-8.326324463922417 0.55555555555536 -4.040610178210566
-7.907905579903504 0.5555555555535994 -5.050762722762041
-7.489486695884336 0.5555555555518388 -6.060915267314132
-9.581581115980896 -0.555555555551839 -1.010152544551939
-9.163162231961747 -0.5555555555536 -2.020305089103982
-8.744743347942906 -0.5555555555553602 -3.030457633655284
-8.326324463923264 -0.5555555555571208 -4.040610178208522
-7.907905579904086 -0.5555555555588809 -5.050762722760636
-7.489486695884596 -0.555555555560642 -6.060915267313505
-9.581581115981107 -1.666666666663882 -1.010152544551425
-9.163162231962309 -1.666666666665205 -2.020305089102628
-8.744743347943755 -1.666666666666527 -3.030457633653235
-8.326324463924111 -1.66666666666785 -4.040610178206475
-7.907905579904667 -1.666666666669173 -5.050762722759233
-7.489486695884855 -1.666666666670495 -6.060915267312878
-9.58158111598132 -2.777777777775659 -1.010152544550912
-9.163162231962868 -2.777777777776277 -2.020305089101275
-8.744743347944603 -2.777777777776894 -3.030457633651186
-8.326324463924959 -2.77777777777751 -4.04061017820443
-7.907905579905249 -2.777777777778128 -5.050762722757828
-7.489486695885116 -2.777777777778746 -6.060915267312249
-9.581581115981534 -3.888888888887522 -1.010152544550398
-9.16316223196343 -3.888888888887522 -2.020305089099921
-8.744743347945452 -3.888888888887522 -3.030457633649137
-8.326324463925806 -3.888888888887521 -4.040610178202385
-7.907905579905831 -3.888888888887522 -5.050762722756423
-7.489486695885375 -3.888888888887522 -6.060915267311622
2 43 0 64
301
302
303
304
305
306
307
308
309
310
311
312
313
314
315
316
317
318
319
320
321
322
323
324
325
326
327
328
329
330
331
332
333
334
335
336
337
338
339
340
341
342
343
344
345
346
347
348
349
350
351
352
353
354
355
356
357
358
359
360
361
362
363
364
1.111111111110318 -3.888888888887521 0
1.111111111110417 -2.777777777779364 0
1.111111111110516 -1.666666666671818 0
1.111111111110615 -0.5555555555624023 0
1.111111111110714 0.5555555555500786 0
1.111111111110813 1.666666666662559 0
1.111111111110912 2.77777777777504 0
1.111111111111011 3.888888888887521 0
2.222222222218816 -3.888888888887522 0
2.222222222219241 -2.777777777779364 0
2.222222222219668 -1.666666666671819 0
2.222222222220093 -0.5555555555624017 0
2.22222222222052 0.5555555555500786 0
2.222222222220945 1.666666666662559 0
2.222222222221371 2.77777777777504 0
2.222222222221797 3.888888888887521 0
3.333333333327042 -3.888888888887522 0
3.333333333327829 -2.777777777779364 0
3.333333333328616 -1.666666666671818 0
3.333333333329402 -0.5555555555624021 0
3.333333333330189 0.5555555555500789 0
3.333333333330976 1.666666666662558 0
3.333333333331762 2.777777777775041 0
3.333333333332547 3.888888888887521 0
4.444444444436932 -3.888888888887523 0
4.444444444437872 -2.777777777779364 0
4.444444444438812 -1.666666666671819 0
4.444444444439752 -0.5555555555624023 0
4.444444444440689 0.5555555555500786 0
4.444444444441629 1.666666666662559 0
4.44444444444257 2.777777777775041 0
4.444444444443507 3.888888888887521 0
5.555555555549547 -3.888888888887522 0
5.555555555550296 -2.777777777779364 0
5.555555555551049 -1.666666666671818 0
5.5555555555518 -0.5555555555624017 0
5.555555555552551 0.5555555555500786 0
5.555555555553304 1.666666666662559 0
5.555555555554058 2.777777777775041 0
5.555555555554808 3.888888888887521 0
6.666666666662162 -3.888888888887523 0
6.666666666662725 -2.777777777779364 0
6.666666666663289 -1.666666666671819 0
6.666666666663851 -0.5555555555624018 0
6.666666666664416 0.5555555555500786 0
6.666666666664981 1.666666666662558 0
6.666666666665543 2.77777777777504 0
6.666666666666108 3.888888888887521 0
7.777777777774773 -3.888888888887522 0
7.77777777777515 -2.777777777779364 0
7.777777777775528 -1.666666666671819 0
7.777777777775903 -0.5555555555624017 0
7.777777777776279 0.5555555555500786 0
7.777777777776654 1.666666666662559 0
7.777777777777032 2.777777777775041 0
7.777777777777407 3.888888888887521 0
8.88888888888739 -3.888888888887522 0
8.888888888887578 -2.777777777779364 0
8.888888888887767 -1.666666666671819 0
8.888888888887951 -0.5555555555624023 0
8.88888888888814 0.5555555555500789 0
8.888888888888328 1.666666666662559 0
8.888888888888516 2.77777777777504 0
8.888888888888701 3.888888888887521 0
2 47 0 64
365
366
367
368
369
370
371
372
373
374
375
376
377
378
379
380
381
382
383
384
385
386
387
388
389
390
391
392
393
394
395
396
397
398
399
400
401
402
403
404
405
406
407
408
409
410
411
412
413
414
415
416
417
418
419
420
421
422
423
424
425
426
427
428
-6.28539361054925 -3.88888888888752 -6.285393610549249
-6.28539361054879 -2.777777777779362 -6.285393610548789
-6.285393610548327 -1.666666666671818 -6.285393610548325
-6.285393610547867 -0.5555555555624017 -6.285393610547865
-6.285393610547406 0.5555555555500786 -6.285393610547404
-6.285393610546945 1.666666666662559 -6.285393610546943
-6.285393610546487 2.777777777775039 -6.285393610546484
-6.285393610546026 3.888888888887521 -6.285393610546024
-5.499719409232879 -3.888888888887521 -5.499719409232878
-5.499719409231951 -2.777777777779363 -5.49971940923195
-5.49971940923102 -1.666666666671819 -5.499719409231018
-5.499719409230091 -0.5555555555624025 -5.499719409230089
-5.499719409229161 0.5555555555500782 -5.499719409229159
-5.499719409228229 1.666666666662558 -5.499719409228227
-5.499719409227298 2.777777777775039 -5.499719409227295
-5.499719409226369 3.888888888887521 -5.499719409226366
-4.71404520791659 -3.888888888887521 -4.714045207916589
-4.714045207915116 -2.777777777779363 -4.714045207915116
-4.714045207913639 -1.666666666671819 -4.714045207913638
-4.714045207912163 -0.5555555555624024 -4.714045207912162
-4.714045207910688 0.5555555555500779 -4.714045207910687
-4.714045207909211 1.666666666662558 -4.71404520790921
-4.714045207907735 2.777777777775039 -4.714045207907733
-4.714045207906262 3.888888888887521 -4.714045207906259
-3.928371006599461 -3.888888888887521 -3.928371006599461
-3.928371006597622 -2.777777777779362 -3.928371006597622
-3.928371006595783 -1.666666666671818 -3.928371006595782
-3.928371006593945 -0.5555555555624022 -3.928371006593944
-3.928371006592106 0.5555555555500785 -3.928371006592105
-3.928371006590268 1.666666666662559 -3.928371006590266
-3.928371006588428 2.77777777777504 -3.928371006588427
-3.92837100658659 3.888888888887521 -3.928371006586588
-3.142696805279546 -3.888888888887521 -3.142696805279547
-3.142696805277723 -2.777777777779362 -3.142696805277723
-3.142696805275903 -1.666666666671818 -3.142696805275903
-3.142696805274082 -0.5555555555624019 -3.142696805274082
-3.142696805272261 0.5555555555500783 -3.14269680527226
-3.14269680527044 1.666666666662559 -3.142696805270439
-3.142696805268618 2.777777777775039 -3.142696805268617
-3.142696805266798 3.88888888888752 -3.142696805266796
-2.357022603959742 -3.888888888887522 -2.357022603959742
-2.357022603958312 -2.777777777779364 -2.357022603958312
-2.357022603956881 -1.666666666671817 -2.357022603956881
-2.357022603955452 -0.5555555555624014 -2.357022603955451
-2.35702260395402 0.5555555555500784 -2.35702260395402
-2.35702260395259 1.666666666662558 -2.35702260395259
-2.357022603951159 2.777777777775039 -2.357022603951159
-2.35702260394973 3.888888888887521 -2.357022603949729
-1.57134840263951 -3.888888888887522 -1.571348402639511
-1.571348402638662 -2.777777777779364 -1.571348402638663
-1.571348402637815 -1.666666666671819 -1.571348402637816
-1.571348402636968 -0.555555555562402 -1.571348402636968
-1.571348402636121 0.5555555555500781 -1.571348402636121
-1.571348402635274 1.666666666662558 -1.571348402635274
-1.571348402634426 2.777777777775039 -1.571348402634425
-1.571348402633579 3.88888888888752 -1.571348402633578
-0.7856742013197093 -3.888888888887521 -0.7856742013197108
-0.7856742013193464 -2.777777777779363 -0.7856742013193476
-0.7856742013189839 -1.666666666671819 -0.7856742013189848
-0.7856742013186213 -0.5555555555624024 -0.7856742013186219
-0.7856742013182584 0.5555555555500776 -0.7856742013182587
-0.7856742013178957 1.666666666662558 -0.7856742013178959
-0.7856742013175328 2.777777777775039 -0.7856742013175327
-0.7856742013171701 3.88888888888752 -0.7856742013171697
2 51 0 64
429
430
431
432
433
434
435
436
437
438
439
440
441
442
443
444
445
446
447
448
449
450
451
452
453
454
455
456
457
458
459
460
461
462
463
464
465
466
467
468
469
470
471
472
473
474
475
476
477
478
479
480
481
482
483
484
485
486
487
488
489
490
491
492
-5.442874662877012e-16 -3.888888888887521 -8.888888888888703
-5.442874662876897e-16 -2.77777777777552 -8.888888888888514
-5.442874662876785e-16 -1.666666666663588 -8.88888888888833
-5.44287466287667e-16 -0.555555555551448 -8.888888888888141
-5.442874662876555e-16 0.5555555555610328 -8.888888888887953
-5.44287466287644e-16 1.666666666670789 -8.888888888887767
-5.442874662876325e-16 2.777777777778883 -8.888888888887577
-5.44287466287621e-16 3.888888888887522 -8.888888888887388
-4.762515330017259e-16 -3.888888888887522 -7.777777777777407
-4.762515330017028e-16 -2.777777777776001 -7.777777777777031
-4.7625153300168e-16 -1.666666666664617 -7.777777777776656
-4.762515330016569e-16 -0.5555555555528169 -7.777777777776279
-4.76251533001634e-16 0.5555555555596636 -7.777777777775905
-4.76251533001611e-16 1.666666666669761 -7.77777777777553
-4.76251533001588e-16 2.777777777778403 -7.777777777775151
-4.762515330015649e-16 3.888888888887522 -7.777777777774775
-4.082155997157503e-16 -3.888888888887522 -6.666666666666107
-4.082155997157156e-16 -2.777777777776482 -6.666666666665542
-4.082155997156812e-16 -1.666666666665646 -6.666666666664979
-4.082155997156467e-16 -0.5555555555541858 -6.666666666664415
-4.082155997156122e-16 0.5555555555582941 -6.666666666663852
-4.082155997155777e-16 1.666666666668732 -6.666666666663288
-4.082155997155432e-16 2.777777777777923 -6.666666666662723
-4.082155997155088e-16 3.888888888887522 -6.666666666662161
-3.401796664297746e-16 -3.888888888887522 -5.555555555554808
-3.401796664297285e-16 -2.777777777776962 -5.555555555554055
-3.401796664296824e-16 -1.666666666666675 -5.555555555553302
-3.401796664296366e-16 -0.5555555555555556 -5.555555555552553
-3.401796664295905e-16 0.5555555555569252 -5.5555555555518
-3.401796664295445e-16 1.666666666667703 -5.555555555551049
-3.401796664294985e-16 2.777777777777442 -5.555555555550297
-3.401796664294524e-16 3.888888888887521 -5.555555555549544
-2.721437331437989e-16 -3.888888888887522 -4.444444444443507
-2.721437331437414e-16 -2.777777777777442 -4.444444444442567
-2.721437331436838e-16 -1.666666666667703 -4.444444444441627
-2.721437331436264e-16 -0.5555555555569248 -4.444444444440689
-2.72143733143569e-16 0.5555555555555558 -4.444444444439751
-2.721437331435114e-16 1.666666666666674 -4.44444444443881
-2.721437331434539e-16 2.777777777776962 -4.444444444437871
-2.721437331433963e-16 3.888888888887521 -4.444444444436931
-2.041077998578442e-16 -3.888888888887522 -3.333333333332549
-2.04107799857796e-16 -2.777777777777923 -3.333333333331761
-2.041077998577478e-16 -1.666666666668732 -3.333333333330974
-2.041077998576998e-16 -0.5555555555582944 -3.333333333330189
-2.041077998576516e-16 0.5555555555541866 -3.333333333329402
-2.041077998576035e-16 1.666666666665645 -3.333333333328616
-2.041077998575553e-16 2.777777777776481 -3.333333333327829
-2.041077998575071e-16 3.888888888887521 -3.333333333327043
-1.36071866571902e-16 -3.888888888887522 -2.222222222221796
-1.360718665718761e-16 -2.777777777778403 -2.222222222221371
-1.3607186657185e-16 -1.666666666669761 -2.222222222220946
-1.360718665718239e-16 -0.555555555559663 -2.22222222222052
-1.360718665717978e-16 0.5555555555528172 -2.222222222220093
-1.360718665717717e-16 1.666666666664617 -2.222222222219667
-1.360718665717457e-16 2.777777777776002 -2.222222222219242
-1.360718665717197e-16 3.888888888887521 -2.222222222218816
-6.803593328595791e-17 -3.888888888887522 -1.111111111111011
-6.803593328595188e-17 -2.777777777778884 -1.111111111110912
-6.803593328594584e-17 -1.666666666670789 -1.111111111110813
-6.803593328593976e-17 -0.555555555561033 -1.111111111110714
-6.803593328593372e-17 0.5555555555514475 -1.111111111110615
-6.803593328592767e-17 1.666666666663588 -1.111111111110516
-6.803593328592163e-17 2.77777777777552 -1.111111111110417
-6.803593328591557e-17 3.888888888887521 -1.111111111110317
2 56 0 64
493
494
495
496
497
498
499
500
501
502
503
504
505
506
507
508
509
510
511
512
513
514
515
516
517
518
519
520
521
522
523
524
525
526
527
528
529
530
531
532
533
534
535
536
537
538
539
540
541
542
543
544
545
546
547
548
549
550
551
552
553
554
555
556
6.285393610549248 -3.888888888887522 -6.28539361054925
6.285393610548789 -2.77777777777552 -6.28539361054879
6.285393610548326 -1.666666666663588 -6.285393610548328
6.285393610547866 -0.5555555555514478 -6.285393610547868
6.285393610547403 0.5555555555610323 -6.285393610547405
6.285393610546943 1.666666666670789 -6.285393610546945
6.285393610546483 2.777777777778883 -6.285393610546485
6.285393610546023 3.888888888887521 -6.285393610546025
5.499719409232879 -3.88888888888752 -5.49971940923288
5.499719409231948 -2.777777777776 -5.499719409231949
5.499719409231018 -1.666666666664616 -5.49971940923102
5.499719409230089 -0.5555555555528167 -5.499719409230091
5.499719409229158 0.5555555555596641 -5.49971940922916
5.499719409228227 1.666666666669761 -5.499719409228229
5.499719409227298 2.777777777778403 -5.499719409227301
5.499719409226365 3.888888888887521 -5.499719409226368
4.714045207916589 -3.888888888887521 -4.714045207916589
4.714045207915115 -2.777777777776481 -4.714045207915115
4.714045207913639 -1.666666666665645 -4.71404520791364
4.714045207912164 -0.5555555555541857 -4.714045207912164
4.714045207910686 0.5555555555582946 -4.714045207910688
4.714045207909209 1.666666666668732 -4.714045207909211
4.714045207907733 2.777777777777922 -4.714045207907736
4.714045207906258 3.888888888887521 -4.714045207906261
3.928371006599459 -3.888888888887522 -3.92837100659946
3.928371006597621 -2.777777777776961 -3.928371006597622
3.928371006595783 -1.666666666666674 -3.928371006595784
3.928371006593944 -0.5555555555555557 -3.928371006593945
3.928371006592105 0.555555555556925 -3.928371006592106
3.928371006590265 1.666666666667703 -3.928371006590266
3.928371006588428 2.777777777777442 -3.92837100658843
3.928371006586589 3.888888888887521 -3.928371006586591
3.142696805279546 -3.888888888887521 -3.142696805279546
3.142696805277724 -2.777777777777442 -3.142696805277724
3.142696805275902 -1.666666666667702 -3.142696805275902
3.142696805274082 -0.5555555555569252 -3.142696805274082
3.14269680527226 0.5555555555555555 -3.142696805272261
3.142696805270438 1.666666666666674 -3.142696805270439
3.142696805268617 2.777777777776961 -3.142696805268618
3.142696805266796 3.888888888887521 -3.142696805266798
2.357022603959742 -3.888888888887523 -2.357022603959742
2.357022603958312 -2.777777777777924 -2.357022603958311
2.357022603956882 -1.666666666668731 -2.357022603956882
2.357022603955451 -0.5555555555582937 -2.357022603955452
2.35702260395402 0.5555555555541856 -2.357022603954021
2.357022603952589 1.666666666665644 -2.35702260395259
2.357022603951159 2.77777777777648 -2.35702260395116
2.357022603949729 3.88888888888752 -2.35702260394973
1.57134840263951 -3.888888888887521 -1.571348402639509
1.571348402638663 -2.777777777778402 -1.571348402638662
1.571348402637816 -1.666666666669761 -1.571348402637815
1.571348402636968 -0.5555555555596627 -1.571348402636968
1.57134840263612 0.5555555555528174 -1.57134840263612
1.571348402635273 1.666666666664617 -1.571348402635273
1.571348402634426 2.777777777776 -1.571348402634426
1.571348402633579 3.888888888887521 -1.57134840263358
0.7856742013197106 -3.888888888887521 -0.7856742013197091
0.7856742013193476 -2.777777777778883 -0.7856742013193465
0.785674201318985 -1.66666666667079 -0.7856742013189841
0.7856742013186215 -0.5555555555610323 -0.7856742013186209
0.7856742013182588 0.5555555555514479 -0.7856742013182584
0.7856742013178962 1.666666666663587 -0.785674201317896
0.7856742013175328 2.777777777775519 -0.785674201317533
0.7856742013171701 3.888888888887521 -0.7856742013171705
2 61 0 48
557
558
559
560
561
562
563
564
565
566
567
568
569
570
571
572
573
574
575
576
577
578
579
580
581
582
583
584
585
586
587
588
589
590
591
592
593
594
595
596
597
598
599
600
601
602
603
604
-6.060915267315663 -3.888888888887522 -7.489486695883699
-5.050762722765971 -3.888888888887522 -7.907905579901874
-4.040610178216729 -3.888888888887522 -8.326324463919862
-3.030457633662871 -3.888888888887522 -8.744743347939762
-2.020305089108743 -3.888888888887522 -9.163162231959774
-1.010152544553989 -3.888888888887522 -9.581581115980045
-6.060915267315071 -2.777777777778746 -7.489486695883944
-5.050762722764645 -2.777777777778129 -7.907905579902422
-4.04061017821481 -2.777777777777511 -8.326324463920656
-3.030457633661001 -2.777777777776893 -8.744743347940537
-2.020305089107505 -2.777777777776277 -9.163162231960287
-1.010152544553489 -2.777777777775658 -9.581581115980253
-6.060915267314478 -1.666666666670496 -7.489486695884191
-5.050762722763318 -1.666666666669173 -7.907905579902973
-4.04061017821289 -1.66666666666785 -8.326324463921452
-3.030457633659131 -1.666666666666528 -8.744743347941311
-2.020305089106268 -1.666666666665205 -9.163162231960799
-1.010152544552989 -1.666666666663882 -9.581581115980459
-6.060915267313884 -0.5555555555606417 -7.489486695884436
-5.050762722761994 -0.5555555555588813 -7.907905579903521
-4.040610178210971 -0.5555555555571209 -8.326324463922246
-3.030457633657261 -0.55555555555536 -8.744743347942086
-2.020305089105031 -0.5555555555535998 -9.163162231961312
-1.010152544552489 -0.5555555555518392 -9.581581115980667
-6.060915267313293 0.5555555555518392 -7.489486695884681
-5.050762722760667 0.5555555555535996 -7.907905579904071
-4.040610178209051 0.55555555555536 -8.326324463923042
-3.03045763365539 0.5555555555571206 -8.74474334794286
-2.020305089103795 0.5555555555588811 -9.163162231961824
-1.010152544551989 0.555555555560642 -9.581581115980875
-6.0609152673127 1.666666666663882 -7.489486695884926
-5.050762722759341 1.666666666665204 -7.90790557990462
-4.040610178207133 1.666666666666527 -8.326324463923836
-3.030457633653521 1.66666666666785 -8.744743347943635
-2.020305089102557 1.666666666669173 -9.163162231962337
-1.010152544551489 1.666666666670496 -9.581581115981081
-6.060915267312107 2.777777777775658 -7.489486695885172
-5.050762722758016 2.777777777776276 -7.907905579905169
-4.040610178205212 2.777777777776893 -8.326324463924632
-3.03045763365165 2.777777777777512 -8.744743347944411
-2.02030508910132 2.777777777778129 -9.163162231962849
-1.01015254455099 2.777777777778746 -9.581581115981288
-6.060915267311515 3.888888888887522 -7.489486695885417
-5.050762722756689 3.888888888887521 -7.907905579905719
-4.040610178203296 3.888888888887521 -8.326324463925426
-3.030457633649779 3.888888888887522 -8.744743347945185
-2.020305089100082 3.88888888888752 -9.163162231963362
-1.01015254455049 3.888888888887521 -9.581581115981495
2 66 0 48
605
606
607
608
609
610
611
612
613
614
615
616
617
618
619
620
621
622
623
624
625
626
627
628
629
630
631
632
633
634
635
636
637
638
639
640
641
642
643
644
645
646
647
648
649
650
651
652
1.010152544553941 3.888888888887522 -9.581581115980066
2.020305089107815 3.888888888887523 -9.163162231960159
3.030457633662022 3.888888888887523 -8.744743347940116
4.040610178215649 3.888888888887522 -8.326324463920312
5.050762722767017 3.888888888887523 -7.907905579901444
6.060915267315714 3.888888888887522 -7.489486695883681
1.010152544553441 2.777777777779364 -9.581581115980272
2.02030508910657 2.777777777779364 -9.163162231960674
3.030457633660332 2.777777777779364 -8.744743347940815
4.040610178213949 2.777777777779365 -8.326324463921015
5.050762722765718 2.777777777779364 -7.907905579901981
6.060915267315129 2.777777777779364 -7.489486695883924
1.010152544552941 1.666666666671819 -9.58158111598048
2.020305089105324 1.666666666671819 -9.163162231961191
3.030457633658644 1.666666666671819 -8.744743347941515
4.040610178212248 1.666666666671819 -8.32632446392172
5.050762722764421 1.666666666671819 -7.907905579902518
6.060915267314541 1.666666666671818 -7.489486695884167
1.010152544552441 0.5555555555624023 -9.581581115980686
2.02030508910408 0.5555555555624021 -9.163162231961707
3.030457633656955 0.555555555562402 -8.744743347942213
4.040610178210546 0.5555555555624021 -8.326324463922425
5.050762722763122 0.5555555555624019 -7.907905579903057
6.060915267313955 0.5555555555624023 -7.489486695884409
1.010152544551942 -0.5555555555500784 -9.581581115980894
2.020305089102835 -0.5555555555500789 -9.163162231962222
3.030457633655267 -0.5555555555500784 -8.744743347942913
4.040610178208846 -0.5555555555500789 -8.326324463923129
5.050762722761824 -0.555555555550078 -7.907905579903594
6.060915267313367 -0.5555555555500789 -7.489486695884652
1.010152544551442 -1.666666666662559 -9.581581115981102
2.020305089101589 -1.666666666662559 -9.163162231962739
3.030457633653578 -1.666666666662559 -8.744743347943613
4.040610178207142 -1.666666666662559 -8.326324463923836
5.050762722760524 -1.666666666662559 -7.907905579904132
6.06091526731278 -1.666666666662559 -7.489486695884896
1.010152544550942 -2.77777777777504 -9.581581115981308
2.020305089100345 -2.777777777775041 -9.163162231963254
3.03045763365189 -2.77777777777504 -8.744743347944313
4.040610178205442 -2.77777777777504 -8.326324463924539
5.050762722759228 -2.777777777775041 -7.90790557990467
6.060915267312193 -2.777777777775041 -7.489486695885139
1.010152544550442 -3.888888888887521 -9.581581115981516
2.0203050890991 -3.888888888887522 -9.163162231963769
3.030457633650201 -3.888888888887522 -8.744743347945011
4.04061017820374 -3.888888888887521 -8.326324463925245
5.050762722757928 -3.888888888887521 -7.907905579905208
6.060915267311605 -3.888888888887521 -7.489486695885383
2 71 0 48
653
654
655
656
657
658
659
660
661
662
663
664
665
666
667
668
669
670
671
672
673
674
675
676
677
678
679
680
681
682
683
684
685
686
687
688
689
690
691
692
693
694
695
696
697
698
699
700
7.489486695885397 3.888888888887522 -6.060915267311563
7.907905579905083 3.888888888887522 -5.05076272275822
8.326324463924859 3.888888888887522 -4.040610178204661
8.744743347944725 3.888888888887522 -3.030457633650888
9.163162231963689 3.888888888887522 -2.020305089099291
9.58158111598147 3.888888888887522 -1.010152544550548
7.489486695885143 2.777777777778748 -6.060915267312176
7.907905579904567 2.777777777778129 -5.050762722759468
8.326324463924202 2.777777777777511 -4.040610178206251
8.744743347944082 2.777777777776894 -3.030457633652439
9.163162231963209 2.777777777776277 -2.020305089100445
9.581581115981262 2.777777777775658 -1.010152544551049
7.489486695884887 1.666666666670496 -6.060915267312794
7.907905579904049 1.666666666669173 -5.050762722760718
8.326324463923543 1.66666666666785 -4.040610178207841
8.744743347943439 1.666666666666528 -3.030457633653991
9.16316223196273 1.666666666665205 -2.020305089101603
9.581581115981054 1.666666666663882 -1.010152544551549
7.489486695884633 0.5555555555606412 -6.060915267313408
7.907905579903533 0.555555555558881 -5.050762722761965
8.326324463922884 0.5555555555571206 -4.040610178209429
8.744743347942796 0.5555555555553604 -3.030457633655542
9.163162231962252 0.5555555555535998 -2.020305089102758
9.581581115980848 0.555555555551839 -1.01015254455205
7.489486695884377 -0.5555555555518391 -6.060915267314025
7.907905579903016 -0.5555555555535995 -5.050762722763213
8.326324463922226 -0.5555555555553597 -4.040610178211019
8.744743347942155 -0.5555555555571203 -3.030457633657094
9.163162231961772 -0.5555555555588811 -2.020305089103914
9.58158111598064 -0.5555555555606422 -1.010152544552549
7.489486695884123 -1.666666666663881 -6.060915267314638
7.907905579902499 -1.666666666665205 -5.050762722764461
8.326324463921567 -1.666666666666528 -4.040610178212608
8.744743347941512 -1.66666666666785 -3.030457633658646
9.163162231961294 -1.666666666669173 -2.02030508910507
9.581581115980432 -1.666666666670495 -1.01015254455305
7.489486695883867 -2.777777777775658 -6.060915267315255
7.907905579901981 -2.777777777776276 -5.05076272276571
8.326324463920908 -2.777777777776893 -4.040610178214199
8.744743347940869 -2.777777777777511 -3.030457633660197
9.163162231960815 -2.777777777778129 -2.020305089106226
9.581581115980226 -2.777777777778746 -1.010152544553551
7.489486695883611 -3.888888888887522 -6.060915267315871
7.907905579901465 -3.888888888887521 -5.050762722766956
8.326324463920251 -3.888888888887522 -4.040610178215788
8.744743347940226 -3.888888888887521 -3.030457633661749
9.163162231960337 -3.888888888887521 -2.020305089107382
9.581581115980018 -3.888888888887522 -1.010152544554051
$EndNodes
$Elements
45 1526 1 1526
0 11 15 1
1 1 
0 12 15 1
2 2 
0 13 15 1
3 3 
0 14 15 1
4 4 
0 15 15 1
5 5 
0 16 15 1
6 6 
0 18 15 1
7 7 
0 22 15 1
8 8 
0 23 15 1
9 9 
0 32 15 1
10 10 
0 33 15 1
11 11 
0 42 15 1
12 12 
1 21 1 9
13 1 13 
14 13 14 
15 14 15 
16 15 16 
17 16 17 
18 17 18 
19 18 19 
20 19 20 
21 20 2 
1 22 1 9
22 2 21 
23 21 22 
24 22 23 
25 23 24 
26 24 25 
27 25 26 
28 26 27 
29 27 28 
30 28 3 
1 23 1 9
31 3 29 
32 29 30 
33 30 31 
34 31 32 
35 32 33 
36 33 34 
37 34 35 
38 35 36 
39 36 4 
1 24 1 9
40 4 37 
41 37 38 
42 38 39 
43 39 40 
44 40 41 
45 41 42 
46 42 43 
47 43 44 
48 44 1 
1 25 1 7
49 1 45 
50 45 46 
51 46 47 
52 47 48 
53 48 49 
54 49 50 
55 50 5 
1 26 1 9
56 5 51 
57 51 52 
58 52 53 
59 53 54 
60 54 55 
61 55 56 
62 56 57 
63 57 58 
64 58 6 
1 27 1 7
65 6 59 
66 59 60 
67 60 61 
68 61 62 
69 62 63 
70 63 64 
71 64 4 
1 44 1 9
72 2 65 
73 65 66 
74 66 67 
75 67 68 
76 68 69 
77 69 70 
78 70 71 
79 71 72 
80 72 7 
1 45 1 9
81 7 73 
82 73 74 
83 74 75 
84 75 76 
85 76 77 
86 77 78 
87 78 79 
88 79 80 
89 80 8 
1 46 1 9
90 8 81 
91 81 82 
92 82 83 
93 83 84 
94 84 85 
95 85 86 
96 86 87 
97 87 88 
98 88 3 
1 48 1 9
99 5 89 
100 89 90 
101 90 91 
102 91 92 
103 92 93 
104 93 94 
105 94 95 
106 95 96 
107 96 2 
1 50 1 9
108 3 97 
109 97 98 
110 98 99 
111 99 100 
112 100 101 
113 101 102 
114 102 103 
115 103 104 
116 104 6 
1 52 1 9
117 9 105 
118 105 106 
119 106 107 
120 107 108 
121 108 109 
122 109 110 
123 110 111 
124 111 112 
125 112 2 
1 54 1 9
126 3 113 
127 113 114 
128 114 115 
129 115 116 
130 116 117 
131 117 118 
132 118 119 
133 119 120 
134 120 10 
1 55 1 9
135 10 121 
136 121 122 
137 122 123 
138 123 124 
139 124 125 
140 125 126 
141 126 127 
142 127 128 
143 128 9 
1 57 1 9
144 11 129 
145 129 130 
146 130 131 
147 131 132 
148 132 133 
149 133 134 
150 134 135 
151 135 136 
152 136 2 
1 59 1 9
153 3 137 
154 137 138 
155 138 139 
156 139 140 
157 140 141 
158 141 142 
159 142 143 
160 143 144 
161 144 12 
1 60 1 9
162 12 145 
163 145 146 
164 146 147 
165 147 148 
166 148 149 
167 149 150 
168 150 151 
169 151 152 
170 152 11 
1 63 1 7
171 5 153 
172 153 154 
173 154 155 
174 155 156 
175 156 157 
176 157 158 
177 158 9 
1 65 1 7
178 10 159 
179 159 160 
180 160 161 
181 161 162 
182 162 163 
183 163 164 
184 164 6 
1 68 1 7
185 9 165 
186 165 166 
187 166 167 
188 167 168 
189 168 169 
190 169 170 
191 170 11 
1 70 1 7
192 12 171 
193 171 172 
194 172 173 
195 173 174 
196 174 175 
197 175 176 
198 176 10 
1 73 1 7
199 11 177 
200 177 178 
201 178 179 
202 179 180 
203 180 181 
204 181 182 
205 182 7 
1 75 1 7
206 8 183 
207 183 184 
208 184 185 
209 185 186 
210 186 187 
211 187 188 
212 188 12 
2 41 2 162
213 1 13 44 
214 44 13 189 
215 44 189 43 
216 43 189 190 
217 43 190 42 
218 42 190 191 
219 42 191 41 
220 41 191 192 
221 41 192 40 
222 40 192 193 
223 40 193 39 
224 39 193 194 
225 39 194 38 
226 38 194 195 
227 38 195 37 
228 37 195 196 
229 37 196 4 
230 4 196 36 
231 13 14 189 
232 189 14 197 
233 189 197 190 
234 190 197 198 
235 190 198 191 
236 191 198 199 
237 191 199 192 
238 192 199 200 
239 192 200 193 
240 193 200 201 
241 193 201 194 
242 194 201 202 
243 194 202 195 
244 195 202 203 
245 195 203 196 
246 196 203 204 
247 196 204 36 
248 36 204 35 
249 14 15 197 
250 197 15 205 
251 197 205 198 
252 198 205 206 
253 198 206 199 
254 199 206 207 
255 199 207 200 
256 200 207 208 
257 200 208 201 
258 201 208 209 
259 201 209 202 
260 202 209 210 
261 202 210 203 
262 203 210 211 
263 203 211 204 
264 204 211 212 
265 204 212 35 
266 35 212 34 
267 15 16 205 
268 205 16 213 
269 205 213 206 
270 206 213 214 
271 206 214 207 
272 207 214 215 
273 207 215 208 
274 208 215 216 
275 208 216 209 
276 209 216 217 
277 209 217 210 
278 210 217 218 
279 210 218 211 
280 211 218 219 
281 211 219 212 
282 212 219 220 
283 212 220 34 
284 34 220 33 
285 16 17 213 
286 213 17 221 
287 213 221 214 
288 214 221 222 
289 214 222 215 
290 215 222 223 
291 215 223 216 
292 216 223 224 
293 216 224 217 
294 217 224 225 
295 217 225 218 
296 218 225 226 
297 218 226 219 
298 219 226 227 
299 219 227 220 
300 220 227 228 
301 220 228 33 
302 33 228 32 
303 17 18 221 
304 221 18 229 
305 221 229 222 
306 222 229 230 
307 222 230 223 
308 223 230 231 
309 223 231 224 
310 224 231 232 
311 224 232 225 
312 225 232 233 
313 225 233 226 
314 226 233 234 
315 226 234 227 
316 227 234 235 
317 227 235 228 
318 228 235 236 
319 228 236 32 
320 32 236 31 
321 18 19 229 
322 229 19 237 
323 229 237 230 
324 230 237 238 
325 230 238 231 
326 231 238 239 
327 231 239 232 
328 232 239 240 
329 232 240 233 
330 233 240 241 
331 233 241 234 
332 234 241 242 
333 234 242 235 
334 235 242 243 
335 235 243 236 
336 236 243 244 
337 236 244 31 
338 31 244 30 
339 19 20 237 
340 237 20 245 
341 237 245 238 
342 238 245 246 
343 238 246 239 
344 239 246 247 
345 239 247 240 
346 240 247 248 
347 240 248 241 
348 241 248 249 
349 241 249 242 
350 242 249 250 
351 242 250 243 
352 243 250 251 
353 243 251 244 
354 244 251 252 
355 244 252 30 
356 30 252 29 
357 20 2 245 
358 245 2 21 
359 245 21 246 
360 246 21 22 
361 246 22 247 
362 247 22 23 
363 247 23 248 
364 248 23 24 
365 248 24 249 
366 249 24 25 
367 249 25 250 
368 250 25 26 
369 250 26 251 
370 251 26 27 
371 251 27 252 
372 252 27 28 
373 252 28 29 
374 29 28 3 
2 42 2 126
375 4 37 64 
376 64 37 253 
377 64 253 63 
378 63 253 254 
379 63 254 62 
380 62 254 255 
381 62 255 61 
382 61 255 256 
383 61 256 60 
384 60 256 257 
385 60 257 59 
386 59 257 258 
387 59 258 6 
388 6 258 58 
389 37 38 253 
390 253 38 259 
391 253 259 254 
392 254 259 260 
393 254 260 255 
394 255 260 261 
395 255 261 256 
396 256 261 262 
397 256 262 257 
398 257 262 263 
399 257 263 258 
400 258 263 264 
401 258 264 58 
402 58 264 57 
403 38 39 259 
404 259 39 265 
405 259 265 260 
406 260 265 266 
407 260 266 261 
408 261 266 267 
409 261 267 262 
410 262 267 268 
411 262 268 263 
412 263 268 269 
413 263 269 264 
414 264 269 270 
415 264 270 57 
416 57 270 56 
417 39 40 265 
418 265 40 271 
419 265 271 266 
420 266 271 272 
421 266 272 267 
422 267 272 273 
423 267 273 268 
424 268 273 274 
425 268 274 269 
426 269 274 275 
427 269 275 270 
428 270 275 276 
429 270 276 56 
430 56 276 55 
431 40 41 271 
432 271 41 277 
433 271 277 272 
434 272 277 278 
435 272 278 273 
436 273 278 279 
437 273 279 274 
438 274 279 280 
439 274 280 275 
440 275 280 281 
441 275 281 276 
442 276 281 282 
443 276 282 55 
444 55 282 54 
445 41 42 277 
446 277 42 283 
447 277 283 278 
448 278 283 284 
449 278 284 279 
450 279 284 285 
451 279 285 280 
452 280 285 286 
453 280 286 281 
454 281 286 287 
455 281 287 282 
456 282 287 288 
457 282 288 54 
458 54 288 53 
459 42 43 283 
460 283 43 289 
461 283 289 284 
462 284 289 290 
463 284 290 285 
464 285 290 291 
465 285 291 286 
466 286 291 292 
467 286 292 287 
468 287 292 293 
469 287 293 288 
470 288 293 294 
471 288 294 53 
472 53 294 52 
473 43 44 289 
474 289 44 295 
475 289 295 290 
476 290 295 296 
477 290 296 291 
478 291 296 297 
479 291 297 292 
480 292 297 298 
481 292 298 293 
482 293 298 299 
483 293 299 294 
484 294 299 300 
485 294 300 52 
486 52 300 51 
487 44 1 295 
488 295 1 45 
489 295 45 296 
490 296 45 46 
491 296 46 297 
492 297 46 47 
493 297 47 298 
494 298 47 48 
495 298 48 299 
496 299 48 49 
497 299 49 300 
498 300 49 50 
499 300 50 51 
500 51 50 5 
2 43 2 162
501 2 65 21 
502 21 65 301 
503 21 301 22 
504 22 301 302 
505 22 302 23 
506 23 302 303 
507 23 303 24 
508 24 303 304 
509 24 304 25 
510 25 304 305 
511 25 305 26 
512 26 305 306 
513 26 306 27 
514 27 306 307 
515 27 307 28 
516 28 307 308 
517 28 308 3 
518 3 308 88 
519 65 66 301 
520 301 66 309 
521 301 309 302 
522 302 309 310 
523 302 310 303 
524 303 310 311 
525 303 311 304 
526 304 311 312 
527 304 312 305 
528 305 312 313 
529 305 313 306 
530 306 313 314 
531 306 314 307 
532 307 314 315 
533 307 315 308 
534 308 315 316 
535 308 316 88 
536 88 316 87 
537 66 67 309 
538 309 67 317 
539 309 317 310 
540 310 317 318 
541 310 318 311 
542 311 318 319 
543 311 319 312 
544 312 319 320 
545 312 320 313 
546 313 320 321 
547 313 321 314 
548 314 321 322 
549 314 322 315 
550 315 322 323 
551 315 323 316 
552 316 323 324 
553 316 324 87 
554 87 324 86 
555 67 68 317 
556 317 68 325 
557 317 325 318 
558 318 325 326 
559 318 326 319 
560 319 326 327 
561 319 327 320 
562 320 327 328 
563 320 328 321 
564 321 328 329 
565 321 329 322 
566 322 329 330 
567 322 330 323 
568 323 330 331 
569 323 331 324 
570 324 331 332 
571 324 332 86 
572 86 332 85 
573 68 69 325 
574 325 69 333 
575 325 333 326 
576 326 333 334 
577 326 334 327 
578 327 334 335 
579 327 335 328 
580 328 335 336 
581 328 336 329 
582 329 336 337 
583 329 337 330 
584 330 337 338 
585 330 338 331 
586 331 338 339 
587 331 339 332 
588 332 339 340 
589 332 340 85 
590 85 340 84 
591 69 70 333 
592 333 70 341 
593 333 341 334 
594 334 341 342 
595 334 342 335 
596 335 342 343 
597 335 343 336 
598 336 343 344 
599 336 344 337 
600 337 344 345 
601 337 345 338 
602 338 345 346 
603 338 346 339 
604 339 346 347 
605 339 347 340 
606 340 347 348 
607 340 348 84 
608 84 348 83 
609 70 71 341 
610 341 71 349 
611 341 349 342 
612 342 349 350 
613 342 350 343 
614 343 350 351 
615 343 351 344 
616 344 351 352 
617 344 352 345 
618 345 352 353 
619 345 353 346 
620 346 353 354 
621 346 354 347 
622 347 354 355 
623 347 355 348 
624 348 355 356 
625 348 356 83 
626 83 356 82 
627 71 72 349 
628 349 72 357 
629 349 357 350 
630 350 357 358 
631 350 358 351 
632 351 358 359 
633 351 359 352 
634 352 359 360 
635 352 360 353 
636 353 360 361 
637 353 361 354 
638 354 361 362 
639 354 362 355 
640 355 362 363 
641 355 363 356 
642 356 363 364 
643 356 364 82 
644 82 364 81 
645 72 7 357 
646 357 7 73 
647 357 73 358 
648 358 73 74 
649 358 74 359 
650 359 74 75 
651 359 75 360 
652 360 75 76 
653 360 76 361 
654 361 76 77 
655 361 77 362 
656 362 77 78 
657 362 78 363 
658 363 78 79 
659 363 79 364 
660 364 79 80 
661 364 80 81 
662 81 80 8 
2 47 2 162
663 5 89 51 
664 51 89 365 
665 51 365 52 
666 52 365 366 
667 52 366 53 
668 53 366 367 
669 53 367 54 
670 54 367 368 
671 54 368 55 
672 55 368 369 
673 55 369 56 
674 56 369 370 
675 56 370 57 
676 57 370 371 
677 57 371 58 
678 58 371 372 
679 58 372 6 
680 6 372 104 
681 89 90 365 
682 365 90 373 
683 365 373 366 
684 366 373 374 
685 366 374 367 
686 367 374 375 
687 367 375 368 
688 368 375 376 
689 368 376 369 
690 369 376 377 
691 369 377 370 
692 370 377 378 
693 370 378 371 
694 371 378 379 
695 371 379 372 
696 372 379 380 
697 372 380 104 
698 104 380 103 
699 90 91 373 
700 373 91 381 
701 373 381 374 
702 374 381 382 
703 374 382 375 
704 375 382 383 
705 375 383 376 
706 376 383 384 
707 376 384 377 
708 377 384 385 
709 377 385 378 
710 378 385 386 
711 378 386 379 
712 379 386 387 
713 379 387 380 
714 380 387 388 
715 380 388 103 
716 103 388 102 
717 91 92 381 
718 381 92 389 
719 381 389 382 
720 382 389 390 
721 382 390 383 
722 383 390 391 
723 383 391 384 
724 384 391 392 
725 384 392 385 
726 385 392 393 
727 385 393 386 
728 386 393 394 
729 386 394 387 
730 387 394 395 
731 387 395 388 
732 388 395 396 
733 388 396 102 
734 102 396 101 
735 92 93 389 
736 389 93 397 
737 389 397 390 
738 390 397 398 
739 390 398 391 
740 391 398 399 
741 391 399 392 
742 392 399 400 
743 392 400 393 
744 393 400 401 
745 393 401 394 
746 394 401 402 
747 394 402 395 
748 395 402 403 
749 395 403 396 
750 396 403 404 
751 396 404 101 
752 101 404 100 
753 93 94 397 
754 397 94 405 
755 397 405 398 
756 398 405 406 
757 398 406 399 
758 399 406 407 
759 399 407 400 
760 400 407 408 
761 400 408 401 
762 401 408 409 
763 401 409 402 
764 402 409 410 
765 402 410 403 
766 403 410 411 
767 403 411 404 
768 404 411 412 
769 404 412 100 
770 100 412 99 
771 94 95 405 
772 405 95 413 
773 405 413 406 
774 406 413 414 
775 406 414 407 
776 407 414 415 
777 407 415 408 
778 408 415 416 
779 408 416 409 
780 409 416 417 
781 409 417 410 
782 410 417 418 
783 410 418 411 
784 411 418 419 
785 411 419 412 
786 412 419 420 
787 412 420 99 
788 99 420 98 
789 95 96 413 
790 413 96 421 
791 413 421 414 
792 414 421 422 
793 414 422 415 
794 415 422 423 
795 415 423 416 
796 416 423 424 
797 416 424 417 
798 417 424 425 
799 417 425 418 
800 418 425 426 
801 418 426 419 
802 419 426 427 
803 419 427 420 
804 420 427 428 
805 420 428 98 
806 98 428 97 
807 96 2 421 
808 421 2 21 
809 421 21 422 
810 422 21 22 
811 422 22 423 
812 423 22 23 
813 423 23 424 
814 424 23 24 
815 424 24 425 
816 425 24 25 
817 425 25 426 
818 426 25 26 
819 426 26 427 
820 427 26 27 
821 427 27 428 
822 428 27 28 
823 428 28 97 
824 97 28 3 
2 51 2 162
825 9 105 128 
826 128 105 429 
827 128 429 127 
828 127 429 430 
829 127 430 126 
830 126 430 431 
831 126 431 125 
832 125 431 432 
833 125 432 124 
834 124 432 433 
835 124 433 123 
836 123 433 434 
837 123 434 122 
838 122 434 435 
839 122 435 121 
840 121 435 436 
841 121 436 10 
842 10 436 120 
843 105 106 429 
844 429 106 437 
845 429 437 430 
846 430 437 438 
847 430 438 431 
848 431 438 439 
849 431 439 432 
850 432 439 440 
851 432 440 433 
852 433 440 441 
853 433 441 434 
854 434 441 442 
855 434 442 435 
856 435 442 443 
857 435 443 436 
858 436 443 444 
859 436 444 120 
860 120 444 119 
861 106 107 437 
862 437 107 445 
863 437 445 438 
864 438 445 446 
865 438 446 439 
866 439 446 447 
867 439 447 440 
868 440 447 448 
869 440 448 441 
870 441 448 449 
871 441 449 442 
872 442 449 450 
873 442 450 443 
874 443 450 451 
875 443 451 444 
876 444 451 452 
877 444 452 119 
878 119 452 118 
879 107 108 445 
880 445 108 453 
881 445 453 446 
882 446 453 454 
883 446 454 447 
884 447 454 455 
885 447 455 448 
886 448 455 456 
887 448 456 449 
888 449 456 457 
889 449 457 450 
890 450 457 458 
891 450 458 451 
892 451 458 459 
893 451 459 452 
894 452 459 460 
895 452 460 118 
896 118 460 117 
897 108 109 453 
898 453 109 461 
899 453 461 454 
900 454 461 462 
901 454 462 455 
902 455 462 463 
903 455 463 456 
904 456 463 464 
905 456 464 457 
906 457 464 465 
907 457 465 458 
908 458 465 466 
909 458 466 459 
910 459 466 467 
911 459 467 460 
912 460 467 468 
913 460 468 117 
914 117 468 116 
915 109 110 461 
916 461 110 469 
917 461 469 462 
918 462 469 470 
919 462 470 463 
920 463 470 471 
921 463 471 464 
922 464 471 472 
923 464 472 465 
924 465 472 473 
925 465 473 466 
926 466 473 474 
927 466 474 467 
928 467 474 475 
929 467 475 468 
930 468 475 476 
931 468 476 116 
932 116 476 115 
933 110 111 469 
934 469 111 477 
935 469 477 470 
936 470 477 478 
937 470 478 471 
938 471 478 479 
939 471 479 472 
940 472 479 480 
941 472 480 473 
942 473 480 481 
943 473 481 474 
944 474 481 482 
945 474 482 475 
946 475 482 483 
947 475 483 476 
948 476 483 484 
949 476 484 115 
950 115 484 114 
951 111 112 477 
952 477 112 485 
953 477 485 478 
954 478 485 486 
955 478 486 479 
956 479 486 487 
957 479 487 480 
958 480 487 488 
959 480 488 481 
960 481 488 489 
961 481 489 482 
962 482 489 490 
963 482 490 483 
964 483 490 491 
965 483 491 484 
966 484 491 492 
967 484 492 114 
968 114 492 113 
969 112 2 485 
970 485 2 21 
971 485 21 486 
972 486 21 22 
973 486 22 487 
974 487 22 23 
975 487 23 488 
976 488 23 24 
977 488 24 489 
978 489 24 25 
979 489 25 490 
980 490 25 26 
981 490 26 491 
982 491 26 27 
983 491 27 492 
984 492 27 28 
985 492 28 113 
986 113 28 3 
2 56 2 162
987 11 129 152 
988 152 129 493 
989 152 493 151 
990 151 493 494 
991 151 494 150 
992 150 494 495 
993 150 495 149 
994 149 495 496 
995 149 496 148 
996 148 496 497 
997 148 497 147 
998 147 497 498 
999 147 498 146 
1000 146 498 499 
1001 146 499 145 
1002 145 499 500 
1003 145 500 12 
1004 12 500 144 
1005 129 130 493 
1006 493 130 501 
1007 493 501 494 
1008 494 501 502 
1009 494 502 495 
1010 495 502 503 
1011 495 503 496 
1012 496 503 504 
1013 496 504 497 
1014 497 504 505 
1015 497 505 498 
1016 498 505 506 
1017 498 506 499 
1018 499 506 507 
1019 499 507 500 
1020 500 507 508 
1021 500 508 144 
1022 144 508 143 
1023 130 131 501 
1024 501 131 509 
1025 501 509 502 
1026 502 509 510 
1027 502 510 503 
1028 503 510 511 
1029 503 511 504 
1030 504 511 512 
1031 504 512 505 
1032 505 512 513 
1033 505 513 506 
1034 506 513 514 
1035 506 514 507 
1036 507 514 515 
1037 507 515 508 
1038 508 515 516 
1039 508 516 143 
1040 143 516 142 
1041 131 132 509 
1042 509 132 517 
1043 509 517 510 
1044 510 517 518 
1045 510 518 511 
1046 511 518 519 
1047 511 519 512 
1048 512 519 520 
1049 512 520 513 
1050 513 520 521 
1051 513 521 514 
1052 514 521 522 
1053 514 522 515 
1054 515 522 523 
1055 515 523 516 
1056 516 523 524 
1057 516 524 142 
1058 142 524 141 
1059 132 133 517 
1060 517 133 525 
1061 517 525 518 
1062 518 525 526 
1063 518 526 519 
1064 519 526 527 
1065 519 527 520 
1066 520 527 528 
1067 520 528 521 
1068 521 528 529 
1069 521 529 522 
1070 522 529 530 
1071 522 530 523 
1072 523 530 531 
1073 523 531 524 
1074 524 531 532 
1075 524 532 141 
1076 141 532 140 
1077 133 134 525 
1078 525 134 533 
1079 525 533 526 
1080 526 533 534 
1081 526 534 527 
1082 527 534 535 
1083 527 535 528 
1084 528 535 536 
1085 528 536 529 
1086 529 536 537 
1087 529 537 530 
1088 530 537 538 
1089 530 538 531 
1090 531 538 539 
1091 531 539 532 
1092 532 539 540 
1093 532 540 140 
1094 140 540 139 
1095 134 135 533 
1096 533 135 541 
1097 533 541 534 
1098 534 541 542 
1099 534 542 535 
1100 535 542 543 
1101 535 543 536 
1102 536 543 544 
1103 536 544 537 
1104 537 544 545 
1105 537 545 538 
1106 538 545 546 
1107 538 546 539 
1108 539 546 547 
1109 539 547 540 
1110 540 547 548 
1111 540 548 139 
1112 139 548 138 
1113 135 136 541 
1114 541 136 549 
1115 541 549 542 
1116 542 549 550 
1117 542 550 543 
1118 543 550 551 
1119 543 551 544 
1120 544 551 552 
1121 544 552 545 
1122 545 552 553 
1123 545 553 546 
1124 546 553 554 
1125 546 554 547 
1126 547 554 555 
1127 547 555 548 
1128 548 555 556 
1129 548 556 138 
1130 138 556 137 
1131 136 2 549 
1132 549 2 21 
1133 549 21 550 
1134 550 21 22 
1135 550 22 551 
1136 551 22 23 
1137 551 23 552 
1138 552 23 24 
1139 552 24 553 
1140 553 24 25 
1141 553 25 554 
1142 554 25 26 
1143 554 26 555 
1144 555 26 27 
1145 555 27 556 
1146 556 27 28 
1147 556 28 137 
1148 137 28 3 
2 61 2 126
1149 5 153 51 
1150 153 557 51 
1151 153 154 557 
1152 154 558 557 
1153 154 155 558 
1154 155 559 558 
1155 155 156 559 
1156 156 560 559 
1157 156 157 560 
1158 157 561 560 
1159 157 158 561 
1160 158 562 561 
1161 158 9 562 
1162 9 128 562 
1163 51 557 52 
1164 557 563 52 
1165 557 558 563 
1166 558 564 563 
1167 558 559 564 
1168 559 565 564 
1169 559 560 565 
1170 560 566 565 
1171 560 561 566 
1172 561 567 566 
1173 561 562 567 
1174 562 568 567 
1175 562 128 568 
1176 128 127 568 
1177 52 563 53 
1178 563 569 53 
1179 563 564 569 
1180 564 570 569 
1181 564 565 570 
1182 565 571 570 
1183 565 566 571 
1184 566 572 571 
1185 566 567 572 
1186 567 573 572 
1187 567 568 573 
1188 568 574 573 
1189 568 127 574 
1190 127 126 574 
1191 53 569 54 
1192 569 575 54 
1193 569 570 575 
1194 570 576 575 
1195 570 571 576 
1196 571 577 576 
1197 571 572 577 
1198 572 578 577 
1199 572 573 578 
1200 573 579 578 
1201 573 574 579 
1202 574 580 579 
1203 574 126 580 
1204 126 125 580 
1205 54 575 55 
1206 575 581 55 
1207 575 576 581 
1208 576 582 581 
1209 576 577 582 
1210 577 583 582 
1211 577 578 583 
1212 578 584 583 
1213 578 579 584 
1214 579 585 584 
1215 579 580 585 
1216 580 586 585 
1217 580 125 586 
1218 125 124 586 
1219 55 581 56 
1220 581 587 56 
1221 581 582 587 
1222 582 588 587 
1223 582 583 588 
1224 583 589 588 
1225 583 584 589 
1226 584 590 589 
1227 584 585 590 
1228 585 591 590 
1229 585 586 591 
1230 586 592 591 
1231 586 124 592 
1232 124 123 592 
1233 56 587 57 
1234 587 593 57 
1235 587 588 593 
1236 588 594 593 
1237 588 589 594 
1238 589 595 594 
1239 589 590 595 
1240 590 596 595 
1241 590 591 596 
1242 591 597 596 
1243 591 592 597 
1244 592 598 597 
1245 592 123 598 
1246 123 122 598 
1247 57 593 58 
1248 593 599 58 
1249 593 594 599 
1250 594 600 599 
1251 594 595 600 
1252 595 601 600 
1253 595 596 601 
1254 596 602 601 
1255 596 597 602 
1256 597 603 602 
1257 597 598 603 
1258 598 604 603 
1259 598 122 604 
1260 122 121 604 
1261 58 599 6 
1262 599 164 6 
1263 599 600 164 
1264 600 163 164 
1265 600 601 163 
1266 601 162 163 
1267 601 602 162 
1268 602 161 162 
1269 602 603 161 
1270 603 160 161 
1271 603 604 160 
1272 604 159 160 
1273 604 121 159 
1274 121 10 159 
2 66 2 126
1275 10 121 176 
1276 176 121 605 
1277 176 605 175 
1278 175 605 606 
1279 175 606 174 
1280 174 606 607 
1281 174 607 173 
1282 173 607 608 
1283 173 608 172 
1284 172 608 609 
1285 172 609 171 
1286 171 609 610 
1287 171 610 12 
1288 12 610 145 
1289 121 122 605 
1290 605 122 611 
1291 605 611 606 
1292 606 611 612 
1293 606 612 607 
1294 607 612 613 
1295 607 613 608 
1296 608 613 614 
1297 608 614 609 
1298 609 614 615 
1299 609 615 610 
1300 610 615 616 
1301 610 616 145 
1302 145 616 146 
1303 122 123 611 
1304 611 123 617 
1305 611 617 612 
1306 612 617 618 
1307 612 618 613 
1308 613 618 619 
1309 613 619 614 
1310 614 619 620 
1311 614 620 615 
1312 615 620 621 
1313 615 621 616 
1314 616 621 622 
1315 616 622 146 
1316 146 622 147 
1317 123 124 617 
1318 617 124 623 
1319 617 623 618 
1320 618 623 624 
1321 618 624 619 
1322 619 624 625 
1323 619 625 620 
1324 620 625 626 
1325 620 626 621 
1326 621 626 627 
1327 621 627 622 
1328 622 627 628 
1329 622 628 147 
1330 147 628 148 
1331 124 125 623 
1332 623 125 629 
1333 623 629 624 
1334 624 629 630 
1335 624 630 625 
1336 625 630 631 
1337 625 631 626 
1338 626 631 632 
1339 626 632 627 
1340 627 632 633 
1341 627 633 628 
1342 628 633 634 
1343 628 634 148 
1344 148 634 149 
1345 125 126 629 
1346 629 126 635 
1347 629 635 630 
1348 630 635 636 
1349 630 636 631 
1350 631 636 637 
1351 631 637 632 
1352 632 637 638 
1353 632 638 633 
1354 633 638 639 
1355 633 639 634 
1356 634 639 640 
1357 634 640 149 
1358 149 640 150 
1359 126 127 635 
1360 635 127 641 
1361 635 641 636 
1362 636 641 642 
1363 636 642 637 
1364 637 642 643 
1365 637 643 638 
1366 638 643 644 
1367 638 644 639 
1368 639 644 645 
1369 639 645 640 
1370 640 645 646 
1371 640 646 150 
1372 150 646 151 
1373 127 128 641 
1374 641 128 647 
1375 641 647 642 
1376 642 647 648 
1377 642 648 643 
1378 643 648 649 
1379 643 649 644 
1380 644 649 650 
1381 644 650 645 
1382 645 650 651 
1383 645 651 646 
1384 646 651 652 
1385 646 652 151 
1386 151 652 152 
1387 128 9 647 
1388 647 9 165 
1389 647 165 648 
1390 648 165 166 
1391 648 166 649 
1392 649 166 167 
1393 649 167 650 
1394 650 167 168 
1395 650 168 651 
1396 651 168 169 
1397 651 169 652 
1398 652 169 170 
1399 652 170 152 
1400 152 170 11 
2 71 2 126
1401 12 145 188 
1402 188 145 653 
1403 188 653 187 
1404 187 653 654 
1405 187 654 186 
1406 186 654 655 
1407 186 655 185 
1408 185 655 656 
1409 185 656 184 
1410 184 656 657 
1411 184 657 183 
1412 183 657 658 
1413 183 658 8 
1414 8 658 80 
1415 145 146 653 
1416 653 146 659 
1417 653 659 654 
1418 654 659 660 
1419 654 660 655 
1420 655 660 661 
1421 655 661 656 
1422 656 661 662 
1423 656 662 657 
1424 657 662 663 
1425 657 663 658 
1426 658 663 664 
1427 658 664 80 
1428 80 664 79 
1429 146 147 659 
1430 659 147 665 
1431 659 665 660 
1432 660 665 666 
1433 660 666 661 
1434 661 666 667 
1435 661 667 662 
1436 662 667 668 
1437 662 668 663 
1438 663 668 669 
1439 663 669 664 
1440 664 669 670 
1441 664 670 79 
1442 79 670 78 
1443 147 148 665 
1444 665 148 671 
1445 665 671 666 
1446 666 671 672 
1447 666 672 667 
1448 667 672 673 
1449 667 673 668 
1450 668 673 674 
1451 668 674 669 
1452 669 674 675 
1453 669 675 670 
1454 670 675 676 
1455 670 676 78 
1456 78 676 77 
1457 148 149 671 
1458 671 149 677 
1459 671 677 672 
1460 672 677 678 
1461 672 678 673 
1462 673 678 679 
1463 673 679 674 
1464 674 679 680 
1465 674 680 675 
1466 675 680 681 
1467 675 681 676 
1468 676 681 682 
1469 676 682 77 
1470 77 682 76 
1471 149 150 677 
1472 677 150 683 
1473 677 683 678 
1474 678 683 684 
1475 678 684 679 
1476 679 684 685 
1477 679 685 680 
1478 680 685 686 
1479 680 686 681 
1480 681 686 687 
1481 681 687 682 
1482 682 687 688 
1483 682 688 76 
1484 76 688 75 
1485 150 151 683 
1486 683 151 689 
1487 683 689 684 
1488 684 689 690 
1489 684 690 685 
1490 685 690 691 
1491 685 691 686 
1492 686 691 692 
1493 686 692 687 
1494 687 692 693 
1495 687 693 688 
1496 688 693 694 
1497 688 694 75 
1498 75 694 74 
1499 151 152 689 
1500 689 152 695 
1501 689 695 690 
1502 690 695 696 
1503 690 696 691 
1504 691 696 697 
1505 691 697 692 
1506 692 697 698 
1507 692 698 693 
1508 693 698 699 
1509 693 699 694 
1510 694 699 700 
1511 694 700 74 
1512 74 700 73 
1513 152 11 695 
1514 695 11 177 
1515 695 177 696 
1516 696 177 178 
1517 696 178 697 
1518 697 178 179 
1519 697 179 698 
1520 698 179 180 
1521 698 180 699 
1522 699 180 181 
1523 699 181 700 
1524 700 181 182 
1525 700 182 73 
1526 73 182 7 
$EndElements
